<svg aria-roledescription="er" role="graphics-document document" viewBox="0 0 659.54052734375 1339" style="max-width: 3840px; background-color: white; max-height: 3840px;" xmlns:xlink="http://www.w3.org/1999/xlink" xmlns="http://www.w3.org/2000/svg" width="100%" id="my-svg"><style>#my-svg{font-family:"trebuchet ms",verdana,arial,sans-serif;font-size:10px;fill:#333;}#my-svg .error-icon{fill:#ffffff;}#my-svg .error-text{fill:#000000;stroke:#000000;}#my-svg .edge-thickness-normal{stroke-width:1px;}#my-svg .edge-thickness-thick{stroke-width:3.5px;}#my-svg .edge-pattern-solid{stroke-dasharray:0;}#my-svg .edge-thickness-invisible{stroke-width:0;fill:none;}#my-svg .edge-pattern-dashed{stroke-dasharray:3;}#my-svg .edge-pattern-dotted{stroke-dasharray:2;}#my-svg .marker{fill:#000000;stroke:#000000;}#my-svg .marker.cross{stroke:#000000;}#my-svg svg{font-family:"trebuchet ms",verdana,arial,sans-serif;font-size:10px;}#my-svg p{margin:0;}#my-svg .entityBox{fill:#ffffff;stroke:#000000;}#my-svg .attributeBoxOdd{fill:#ffffff;stroke:#000000;}#my-svg .attributeBoxEven{fill:#f2f2f2;stroke:#000000;}#my-svg .relationshipLabelBox{fill:#ffffff;opacity:0.7;background-color:#ffffff;}#my-svg .relationshipLabelBox rect{opacity:0.5;}#my-svg .relationshipLine{stroke:#000000;}#my-svg .entityTitleText{text-anchor:middle;font-size:18px;fill:#333;}#my-svg #MD_PARENT_START{fill:#f5f5f5!important;stroke:#000000!important;stroke-width:1;}#my-svg #MD_PARENT_END{fill:#f5f5f5!important;stroke:#000000!important;stroke-width:1;}#my-svg .node .neo-node{stroke:#000000;}#my-svg [data-look="neo"].node rect,#my-svg [data-look="neo"].cluster rect,#my-svg [data-look="neo"].node polygon{stroke:url(#my-svg-gradient);filter:drop-shadow( 0px 1px 2px rgba(0, 0, 0, 0.25));}#my-svg [data-look="neo"].node rect,#my-svg [data-look="neo"].node polygon,#my-svg [data-look="neo"].node path{stroke:url(#my-svg-gradient);filter:drop-shadow( 0px 1px 2px rgba(0, 0, 0, 0.25));}#my-svg [data-look="neo"].node .neo-line path{stroke:hsl(0, 0%, 70%);filter:none;}#my-svg [data-look="neo"].node circle{stroke:url(#my-svg-gradient);filter:drop-shadow( 0px 1px 2px rgba(0, 0, 0, 0.25));}#my-svg [data-look="neo"].node circle .state-start{fill:#000000;}#my-svg [data-look="neo"].statediagram-cluster rect{fill:#ffffff;stroke:url(#my-svg-gradient);stroke-width:1px;}#my-svg :root{--mermaid-font-family:"trebuchet ms",verdana,arial,sans-serif;}</style><g/><defs><marker orient="auto" markerHeight="240" markerWidth="190" refY="7" refX="0" id="MD_PARENT_START"><path d="M 18,7 L9,13 L1,7 L9,1 Z"/></marker></defs><defs><marker orient="auto" markerHeight="28" markerWidth="20" refY="7" refX="19" id="MD_PARENT_END"><path d="M 18,7 L9,13 L1,7 L9,1 Z"/></marker></defs><defs><marker orient="auto" markerHeight="18" markerWidth="18" refY="9" refX="0" id="ONLY_ONE_START"><path d="M9,0 L9,18 M15,0 L15,18" fill="none" stroke="gray"/></marker></defs><defs><marker orient="auto" markerHeight="18" markerWidth="18" refY="9" refX="18" id="ONLY_ONE_END"><path d="M3,0 L3,18 M9,0 L9,18" fill="none" stroke="gray"/></marker></defs><defs><marker orient="auto" markerHeight="18" markerWidth="30" refY="9" refX="0" id="ZERO_OR_ONE_START"><circle r="6" cy="9" cx="21" fill="white" stroke="gray"/><path d="M9,0 L9,18" fill="none" stroke="gray"/></marker></defs><defs><marker orient="auto" markerHeight="18" markerWidth="30" refY="9" refX="30" id="ZERO_OR_ONE_END"><circle r="6" cy="9" cx="9" fill="white" stroke="gray"/><path d="M21,0 L21,18" fill="none" stroke="gray"/></marker></defs><defs><marker orient="auto" markerHeight="36" markerWidth="45" refY="18" refX="18" id="ONE_OR_MORE_START"><path d="M0,18 Q 18,0 36,18 Q 18,36 0,18 M42,9 L42,27" fill="none" stroke="gray"/></marker></defs><defs><marker orient="auto" markerHeight="36" markerWidth="45" refY="18" refX="27" id="ONE_OR_MORE_END"><path d="M3,9 L3,27 M9,18 Q27,0 45,18 Q27,36 9,18" fill="none" stroke="gray"/></marker></defs><defs><marker orient="auto" markerHeight="36" markerWidth="57" refY="18" refX="18" id="ZERO_OR_MORE_START"><circle r="6" cy="18" cx="48" fill="white" stroke="gray"/><path d="M0,18 Q18,0 36,18 Q18,36 0,18" fill="none" stroke="gray"/></marker></defs><defs><marker orient="auto" markerHeight="36" markerWidth="57" refY="18" refX="39" id="ZERO_OR_MORE_END"><circle r="6" cy="18" cx="9" fill="white" stroke="gray"/><path d="M21,18 Q39,0 57,18 Q39,36 21,18" fill="none" stroke="gray"/></marker></defs><path style="stroke: gray; fill: none;" marker-start="url(#ONLY_ONE_START)" marker-end="url(#ZERO_OR_MORE_END)" d="M196.38,901L196.38,909.333C196.38,917.667,196.38,934.333,217.5,959.437C238.621,984.541,280.861,1018.083,301.981,1034.853L323.101,1051.624" class="er relationshipLine"/><path style="stroke: gray; fill: none;" marker-start="url(#ONLY_ONE_START)" marker-end="url(#ZERO_OR_ONE_END)" d="M96.334,441L96.334,449.333C96.334,457.667,96.334,474.333,99.959,491C103.584,507.667,110.834,524.333,114.459,532.667L118.083,541" class="er relationshipLine"/><path style="stroke: gray; fill: none;" marker-start="url(#ONLY_ONE_START)" marker-end="url(#ZERO_OR_MORE_END)" d="M546.548,838L546.548,856.833C546.548,875.667,546.548,913.333,543.081,940.5C539.614,967.667,532.679,984.333,529.211,992.667L525.744,1001" class="er relationshipLine"/><path style="stroke: gray; fill: none;" marker-start="url(#ONLY_ONE_START)" marker-end="url(#ZERO_OR_MORE_END)" d="M139.198,142.492L123.721,151.91C108.244,161.328,77.289,180.164,64.666,197.915C52.042,215.667,57.75,232.333,60.604,240.667L63.458,249" class="er relationshipLine"/><path style="stroke: gray; fill: none;" marker-start="url(#ONLY_ONE_START)" marker-end="url(#ZERO_OR_MORE_END)" d="M184.835,149L178.419,157.333C172.002,165.667,159.168,182.333,149.897,199C140.627,215.667,134.919,232.333,132.065,240.667L129.211,249" class="er relationshipLine"/><path style="stroke: gray; fill: none;" marker-start="url(#ONLY_ONE_START)" marker-end="url(#ZERO_OR_MORE_END)" d="M262.668,149L266.307,157.333C269.946,165.667,277.224,182.333,280.863,215C284.502,247.667,284.502,296.333,284.502,345C284.502,393.667,284.502,442.333,281.309,475C278.116,507.667,271.73,524.333,268.538,532.667L265.345,541" class="er relationshipLine"/><path style="stroke: gray; fill: none;" marker-start="url(#ONLY_ONE_START)" marker-end="url(#ZERO_OR_MORE_END)" d="M318.999,149L329.917,157.333C340.834,165.667,362.668,182.333,373.585,215C384.502,247.667,384.502,296.333,384.502,345C384.502,393.667,384.502,442.333,377.686,475C370.87,507.667,357.238,524.333,350.422,532.667L343.606,541" class="er relationshipLine"/><g transform="translate(39.203941345214844,541 )" id="entity-BioSample-1ab0b6fa-60b0-543b-bb17-ceab0441b88d"><rect height="360" width="314.35223388671875" y="0" x="0" class="er entityBox"/><text style="dominant-baseline: middle; text-anchor: middle; font-size: 12px;" transform="translate(157.17611694335938,12)" y="0" x="0" id="text-entity-BioSample-1ab0b6fa-60b0-543b-bb17-ceab0441b88d" class="er entityLabel">BioSample</text><rect height="21" width="127.61785888671875" y="24" x="0" class="er attributeBoxOdd"/><text style="dominant-baseline: middle; font-size: 10.2px;" transform="translate(5,34.5)" y="0" x="0" id="text-entity-BioSample-1ab0b6fa-60b0-543b-bb17-ceab0441b88d-attr-1-type" class="er entityLabel">string</text><rect height="21" width="186.734375" y="24" x="127.61785888671875" class="er attributeBoxOdd"/><text style="dominant-baseline: middle; font-size: 10.2px;" transform="translate(132.61785888671875,34.5)" y="0" x="0" id="text-entity-BioSample-1ab0b6fa-60b0-543b-bb17-ceab0441b88d-attr-1-name" class="er entityLabel">biosample_id</text><rect height="21" width="127.61785888671875" y="45" x="0" class="er attributeBoxEven"/><text style="dominant-baseline: middle; font-size: 10.2px;" transform="translate(5,55.5)" y="0" x="0" id="text-entity-BioSample-1ab0b6fa-60b0-543b-bb17-ceab0441b88d-attr-2-type" class="er entityLabel">string</text><rect height="21" width="186.734375" y="45" x="127.61785888671875" class="er attributeBoxEven"/><text style="dominant-baseline: middle; font-size: 10.2px;" transform="translate(132.61785888671875,55.5)" y="0" x="0" id="text-entity-BioSample-1ab0b6fa-60b0-543b-bb17-ceab0441b88d-attr-2-name" class="er entityLabel">anatomical_site</text><rect height="21" width="127.61785888671875" y="66" x="0" class="er attributeBoxOdd"/><text style="dominant-baseline: middle; font-size: 10.2px;" transform="translate(5,76.5)" y="0" x="0" id="text-entity-BioSample-1ab0b6fa-60b0-543b-bb17-ceab0441b88d-attr-3-type" class="er entityLabel">string</text><rect height="21" width="186.734375" y="66" x="127.61785888671875" class="er attributeBoxOdd"/><text style="dominant-baseline: middle; font-size: 10.2px;" transform="translate(132.61785888671875,76.5)" y="0" x="0" id="text-entity-BioSample-1ab0b6fa-60b0-543b-bb17-ceab0441b88d-attr-3-name" class="er entityLabel">anatomical_site_code</text><rect height="21" width="127.61785888671875" y="87" x="0" class="er attributeBoxEven"/><text style="dominant-baseline: middle; font-size: 10.2px;" transform="translate(5,97.5)" y="0" x="0" id="text-entity-BioSample-1ab0b6fa-60b0-543b-bb17-ceab0441b88d-attr-4-type" class="er entityLabel">string</text><rect height="21" width="186.734375" y="87" x="127.61785888671875" class="er attributeBoxEven"/><text style="dominant-baseline: middle; font-size: 10.2px;" transform="translate(132.61785888671875,97.5)" y="0" x="0" id="text-entity-BioSample-1ab0b6fa-60b0-543b-bb17-ceab0441b88d-attr-4-name" class="er entityLabel">anatomical_site_coding_system</text><rect height="21" width="127.61785888671875" y="108" x="0" class="er attributeBoxOdd"/><text style="dominant-baseline: middle; font-size: 10.2px;" transform="translate(5,118.5)" y="0" x="0" id="text-entity-BioSample-1ab0b6fa-60b0-543b-bb17-ceab0441b88d-attr-5-type" class="er entityLabel">stringList</text><rect height="21" width="186.734375" y="108" x="127.61785888671875" class="er attributeBoxOdd"/><text style="dominant-baseline: middle; font-size: 10.2px;" transform="translate(132.61785888671875,118.5)" y="0" x="0" id="text-entity-BioSample-1ab0b6fa-60b0-543b-bb17-ceab0441b88d-attr-5-name" class="er entityLabel">apriori_cell_type</text><rect height="21" width="127.61785888671875" y="129" x="0" class="er attributeBoxEven"/><text style="dominant-baseline: middle; font-size: 10.2px;" transform="translate(5,139.5)" y="0" x="0" id="text-entity-BioSample-1ab0b6fa-60b0-543b-bb17-ceab0441b88d-attr-6-type" class="er entityLabel">APrioriCellTypeValuesList</text><rect height="21" width="186.734375" y="129" x="127.61785888671875" class="er attributeBoxEven"/><text style="dominant-baseline: middle; font-size: 10.2px;" transform="translate(132.61785888671875,139.5)" y="0" x="0" id="text-entity-BioSample-1ab0b6fa-60b0-543b-bb17-ceab0441b88d-attr-6-name" class="er entityLabel">apriori_cell_type_code</text><rect height="21" width="127.61785888671875" y="150" x="0" class="er attributeBoxOdd"/><text style="dominant-baseline: middle; font-size: 10.2px;" transform="translate(5,160.5)" y="0" x="0" id="text-entity-BioSample-1ab0b6fa-60b0-543b-bb17-ceab0441b88d-attr-7-type" class="er entityLabel">stringList</text><rect height="21" width="186.734375" y="150" x="127.61785888671875" class="er attributeBoxOdd"/><text style="dominant-baseline: middle; font-size: 10.2px;" transform="translate(132.61785888671875,160.5)" y="0" x="0" id="text-entity-BioSample-1ab0b6fa-60b0-543b-bb17-ceab0441b88d-attr-7-name" class="er entityLabel">apriori_cell_type_coding_system</text><rect height="21" width="127.61785888671875" y="171" x="0" class="er attributeBoxEven"/><text style="dominant-baseline: middle; font-size: 10.2px;" transform="translate(5,181.5)" y="0" x="0" id="text-entity-BioSample-1ab0b6fa-60b0-543b-bb17-ceab0441b88d-attr-8-type" class="er entityLabel">BioSampleTypeValues</text><rect height="21" width="186.734375" y="171" x="127.61785888671875" class="er attributeBoxEven"/><text style="dominant-baseline: middle; font-size: 10.2px;" transform="translate(132.61785888671875,181.5)" y="0" x="0" id="text-entity-BioSample-1ab0b6fa-60b0-543b-bb17-ceab0441b88d-attr-8-name" class="er entityLabel">biosample_type</text><rect height="21" width="127.61785888671875" y="192" x="0" class="er attributeBoxOdd"/><text style="dominant-baseline: middle; font-size: 10.2px;" transform="translate(5,202.5)" y="0" x="0" id="text-entity-BioSample-1ab0b6fa-60b0-543b-bb17-ceab0441b88d-attr-9-type" class="er entityLabel">string</text><rect height="21" width="186.734375" y="192" x="127.61785888671875" class="er attributeBoxOdd"/><text style="dominant-baseline: middle; font-size: 10.2px;" transform="translate(132.61785888671875,202.5)" y="0" x="0" id="text-entity-BioSample-1ab0b6fa-60b0-543b-bb17-ceab0441b88d-attr-9-name" class="er entityLabel">biosample_type_code</text><rect height="21" width="127.61785888671875" y="213" x="0" class="er attributeBoxEven"/><text style="dominant-baseline: middle; font-size: 10.2px;" transform="translate(5,223.5)" y="0" x="0" id="text-entity-BioSample-1ab0b6fa-60b0-543b-bb17-ceab0441b88d-attr-10-type" class="er entityLabel">string</text><rect height="21" width="186.734375" y="213" x="127.61785888671875" class="er attributeBoxEven"/><text style="dominant-baseline: middle; font-size: 10.2px;" transform="translate(132.61785888671875,223.5)" y="0" x="0" id="text-entity-BioSample-1ab0b6fa-60b0-543b-bb17-ceab0441b88d-attr-10-name" class="er entityLabel">biosample_type_coding_system</text><rect height="21" width="127.61785888671875" y="234" x="0" class="er attributeBoxOdd"/><text style="dominant-baseline: middle; font-size: 10.2px;" transform="translate(5,244.5)" y="0" x="0" id="text-entity-BioSample-1ab0b6fa-60b0-543b-bb17-ceab0441b88d-attr-11-type" class="er entityLabel">string</text><rect height="21" width="186.734375" y="234" x="127.61785888671875" class="er attributeBoxOdd"/><text style="dominant-baseline: middle; font-size: 10.2px;" transform="translate(132.61785888671875,244.5)" y="0" x="0" id="text-entity-BioSample-1ab0b6fa-60b0-543b-bb17-ceab0441b88d-attr-11-name" class="er entityLabel">primary_condition</text><rect height="21" width="127.61785888671875" y="255" x="0" class="er attributeBoxEven"/><text style="dominant-baseline: middle; font-size: 10.2px;" transform="translate(5,265.5)" y="0" x="0" id="text-entity-BioSample-1ab0b6fa-60b0-543b-bb17-ceab0441b88d-attr-12-type" class="er entityLabel">string</text><rect height="21" width="186.734375" y="255" x="127.61785888671875" class="er attributeBoxEven"/><text style="dominant-baseline: middle; font-size: 10.2px;" transform="translate(132.61785888671875,265.5)" y="0" x="0" id="text-entity-BioSample-1ab0b6fa-60b0-543b-bb17-ceab0441b88d-attr-12-name" class="er entityLabel">primary_condition_code</text><rect height="21" width="127.61785888671875" y="276" x="0" class="er attributeBoxOdd"/><text style="dominant-baseline: middle; font-size: 10.2px;" transform="translate(5,286.5)" y="0" x="0" id="text-entity-BioSample-1ab0b6fa-60b0-543b-bb17-ceab0441b88d-attr-13-type" class="er entityLabel">string</text><rect height="21" width="186.734375" y="276" x="127.61785888671875" class="er attributeBoxOdd"/><text style="dominant-baseline: middle; font-size: 10.2px;" transform="translate(132.61785888671875,286.5)" y="0" x="0" id="text-entity-BioSample-1ab0b6fa-60b0-543b-bb17-ceab0441b88d-attr-13-name" class="er entityLabel">primary_condition_coding_system</text><rect height="21" width="127.61785888671875" y="297" x="0" class="er attributeBoxEven"/><text style="dominant-baseline: middle; font-size: 10.2px;" transform="translate(5,307.5)" y="0" x="0" id="text-entity-BioSample-1ab0b6fa-60b0-543b-bb17-ceab0441b88d-attr-14-type" class="er entityLabel">string</text><rect height="21" width="186.734375" y="297" x="127.61785888671875" class="er attributeBoxEven"/><text style="dominant-baseline: middle; font-size: 10.2px;" transform="translate(132.61785888671875,307.5)" y="0" x="0" id="text-entity-BioSample-1ab0b6fa-60b0-543b-bb17-ceab0441b88d-attr-14-name" class="er entityLabel">donor_age_at_collection_unit</text><rect height="21" width="127.61785888671875" y="318" x="0" class="er attributeBoxOdd"/><text style="dominant-baseline: middle; font-size: 10.2px;" transform="translate(5,328.5)" y="0" x="0" id="text-entity-BioSample-1ab0b6fa-60b0-543b-bb17-ceab0441b88d-attr-15-type" class="er entityLabel">float</text><rect height="21" width="186.734375" y="318" x="127.61785888671875" class="er attributeBoxOdd"/><text style="dominant-baseline: middle; font-size: 10.2px;" transform="translate(132.61785888671875,328.5)" y="0" x="0" id="text-entity-BioSample-1ab0b6fa-60b0-543b-bb17-ceab0441b88d-attr-15-name" class="er entityLabel">donor_age_at_collection_lower_bound</text><rect height="21" width="127.61785888671875" y="339" x="0" class="er attributeBoxEven"/><text style="dominant-baseline: middle; font-size: 10.2px;" transform="translate(5,349.5)" y="0" x="0" id="text-entity-BioSample-1ab0b6fa-60b0-543b-bb17-ceab0441b88d-attr-16-type" class="er entityLabel">float</text><rect height="21" width="186.734375" y="339" x="127.61785888671875" class="er attributeBoxEven"/><text style="dominant-baseline: middle; font-size: 10.2px;" transform="translate(132.61785888671875,349.5)" y="0" x="0" id="text-entity-BioSample-1ab0b6fa-60b0-543b-bb17-ceab0441b88d-attr-16-name" class="er entityLabel">donor_age_at_collection_upper_bound</text></g><g transform="translate(323.1014404296875,1001 )" id="entity-Donor-154b7bca-042d-506b-8666-2d01b6e0a138"><rect height="318" width="272.96875" y="0" x="0" class="er entityBox"/><text style="dominant-baseline: middle; text-anchor: middle; font-size: 12px;" transform="translate(136.484375,12)" y="0" x="0" id="text-entity-Donor-154b7bca-042d-506b-8666-2d01b6e0a138" class="er entityLabel">Donor</text><rect height="21" width="108.359375" y="24" x="0" class="er attributeBoxOdd"/><text style="dominant-baseline: middle; font-size: 10.2px;" transform="translate(5,34.5)" y="0" x="0" id="text-entity-Donor-154b7bca-042d-506b-8666-2d01b6e0a138-attr-1-type" class="er entityLabel">string</text><rect height="21" width="164.609375" y="24" x="108.359375" class="er attributeBoxOdd"/><text style="dominant-baseline: middle; font-size: 10.2px;" transform="translate(113.359375,34.5)" y="0" x="0" id="text-entity-Donor-154b7bca-042d-506b-8666-2d01b6e0a138-attr-1-name" class="er entityLabel">donor_id</text><rect height="21" width="108.359375" y="45" x="0" class="er attributeBoxEven"/><text style="dominant-baseline: middle; font-size: 10.2px;" transform="translate(5,55.5)" y="0" x="0" id="text-entity-Donor-154b7bca-042d-506b-8666-2d01b6e0a138-attr-2-type" class="er entityLabel">DonorTypeValues</text><rect height="21" width="164.609375" y="45" x="108.359375" class="er attributeBoxEven"/><text style="dominant-baseline: middle; font-size: 10.2px;" transform="translate(113.359375,55.5)" y="0" x="0" id="text-entity-Donor-154b7bca-042d-506b-8666-2d01b6e0a138-attr-2-name" class="er entityLabel">donor_type</text><rect height="21" width="108.359375" y="66" x="0" class="er attributeBoxOdd"/><text style="dominant-baseline: middle; font-size: 10.2px;" transform="translate(5,76.5)" y="0" x="0" id="text-entity-Donor-154b7bca-042d-506b-8666-2d01b6e0a138-attr-3-type" class="er entityLabel">string</text><rect height="21" width="164.609375" y="66" x="108.359375" class="er attributeBoxOdd"/><text style="dominant-baseline: middle; font-size: 10.2px;" transform="translate(113.359375,76.5)" y="0" x="0" id="text-entity-Donor-154b7bca-042d-506b-8666-2d01b6e0a138-attr-3-name" class="er entityLabel">organism_type</text><rect height="21" width="108.359375" y="87" x="0" class="er attributeBoxEven"/><text style="dominant-baseline: middle; font-size: 10.2px;" transform="translate(5,97.5)" y="0" x="0" id="text-entity-Donor-154b7bca-042d-506b-8666-2d01b6e0a138-attr-4-type" class="er entityLabel">string</text><rect height="21" width="164.609375" y="87" x="108.359375" class="er attributeBoxEven"/><text style="dominant-baseline: middle; font-size: 10.2px;" transform="translate(113.359375,97.5)" y="0" x="0" id="text-entity-Donor-154b7bca-042d-506b-8666-2d01b6e0a138-attr-4-name" class="er entityLabel">organism_type_code</text><rect height="21" width="108.359375" y="108" x="0" class="er attributeBoxOdd"/><text style="dominant-baseline: middle; font-size: 10.2px;" transform="translate(5,118.5)" y="0" x="0" id="text-entity-Donor-154b7bca-042d-506b-8666-2d01b6e0a138-attr-5-type" class="er entityLabel">string</text><rect height="21" width="164.609375" y="108" x="108.359375" class="er attributeBoxOdd"/><text style="dominant-baseline: middle; font-size: 10.2px;" transform="translate(113.359375,118.5)" y="0" x="0" id="text-entity-Donor-154b7bca-042d-506b-8666-2d01b6e0a138-attr-5-name" class="er entityLabel">organism_type_coding_system</text><rect height="21" width="108.359375" y="129" x="0" class="er attributeBoxEven"/><text style="dominant-baseline: middle; font-size: 10.2px;" transform="translate(5,139.5)" y="0" x="0" id="text-entity-Donor-154b7bca-042d-506b-8666-2d01b6e0a138-attr-6-type" class="er entityLabel">PhenotypicSexValues</text><rect height="21" width="164.609375" y="129" x="108.359375" class="er attributeBoxEven"/><text style="dominant-baseline: middle; font-size: 10.2px;" transform="translate(113.359375,139.5)" y="0" x="0" id="text-entity-Donor-154b7bca-042d-506b-8666-2d01b6e0a138-attr-6-name" class="er entityLabel">phenotypic_sex</text><rect height="21" width="108.359375" y="150" x="0" class="er attributeBoxOdd"/><text style="dominant-baseline: middle; font-size: 10.2px;" transform="translate(5,160.5)" y="0" x="0" id="text-entity-Donor-154b7bca-042d-506b-8666-2d01b6e0a138-attr-7-type" class="er entityLabel">string</text><rect height="21" width="164.609375" y="150" x="108.359375" class="er attributeBoxOdd"/><text style="dominant-baseline: middle; font-size: 10.2px;" transform="translate(113.359375,160.5)" y="0" x="0" id="text-entity-Donor-154b7bca-042d-506b-8666-2d01b6e0a138-attr-7-name" class="er entityLabel">phenotypic_sex_code</text><rect height="21" width="108.359375" y="171" x="0" class="er attributeBoxEven"/><text style="dominant-baseline: middle; font-size: 10.2px;" transform="translate(5,181.5)" y="0" x="0" id="text-entity-Donor-154b7bca-042d-506b-8666-2d01b6e0a138-attr-8-type" class="er entityLabel">string</text><rect height="21" width="164.609375" y="171" x="108.359375" class="er attributeBoxEven"/><text style="dominant-baseline: middle; font-size: 10.2px;" transform="translate(113.359375,181.5)" y="0" x="0" id="text-entity-Donor-154b7bca-042d-506b-8666-2d01b6e0a138-attr-8-name" class="er entityLabel">phenotypic_sex_coding_system</text><rect height="21" width="108.359375" y="192" x="0" class="er attributeBoxOdd"/><text style="dominant-baseline: middle; font-size: 10.2px;" transform="translate(5,202.5)" y="0" x="0" id="text-entity-Donor-154b7bca-042d-506b-8666-2d01b6e0a138-attr-9-type" class="er entityLabel">stringList</text><rect height="21" width="164.609375" y="192" x="108.359375" class="er attributeBoxOdd"/><text style="dominant-baseline: middle; font-size: 10.2px;" transform="translate(113.359375,202.5)" y="0" x="0" id="text-entity-Donor-154b7bca-042d-506b-8666-2d01b6e0a138-attr-9-name" class="er entityLabel">reported_ethnicity</text><rect height="21" width="108.359375" y="213" x="0" class="er attributeBoxEven"/><text style="dominant-baseline: middle; font-size: 10.2px;" transform="translate(5,223.5)" y="0" x="0" id="text-entity-Donor-154b7bca-042d-506b-8666-2d01b6e0a138-attr-10-type" class="er entityLabel">stringList</text><rect height="21" width="164.609375" y="213" x="108.359375" class="er attributeBoxEven"/><text style="dominant-baseline: middle; font-size: 10.2px;" transform="translate(113.359375,223.5)" y="0" x="0" id="text-entity-Donor-154b7bca-042d-506b-8666-2d01b6e0a138-attr-10-name" class="er entityLabel">reported_ethnicity_code</text><rect height="21" width="108.359375" y="234" x="0" class="er attributeBoxOdd"/><text style="dominant-baseline: middle; font-size: 10.2px;" transform="translate(5,244.5)" y="0" x="0" id="text-entity-Donor-154b7bca-042d-506b-8666-2d01b6e0a138-attr-11-type" class="er entityLabel">stringList</text><rect height="21" width="164.609375" y="234" x="108.359375" class="er attributeBoxOdd"/><text style="dominant-baseline: middle; font-size: 10.2px;" transform="translate(113.359375,244.5)" y="0" x="0" id="text-entity-Donor-154b7bca-042d-506b-8666-2d01b6e0a138-attr-11-name" class="er entityLabel">reported_ethnicity_coding_system</text><rect height="21" width="108.359375" y="255" x="0" class="er attributeBoxEven"/><text style="dominant-baseline: middle; font-size: 10.2px;" transform="translate(5,265.5)" y="0" x="0" id="text-entity-Donor-154b7bca-042d-506b-8666-2d01b6e0a138-attr-12-type" class="er entityLabel">stringList</text><rect height="21" width="164.609375" y="255" x="108.359375" class="er attributeBoxEven"/><text style="dominant-baseline: middle; font-size: 10.2px;" transform="translate(113.359375,265.5)" y="0" x="0" id="text-entity-Donor-154b7bca-042d-506b-8666-2d01b6e0a138-attr-12-name" class="er entityLabel">genetic_ancestry</text><rect height="21" width="108.359375" y="276" x="0" class="er attributeBoxOdd"/><text style="dominant-baseline: middle; font-size: 10.2px;" transform="translate(5,286.5)" y="0" x="0" id="text-entity-Donor-154b7bca-042d-506b-8666-2d01b6e0a138-attr-13-type" class="er entityLabel">stringList</text><rect height="21" width="164.609375" y="276" x="108.359375" class="er attributeBoxOdd"/><text style="dominant-baseline: middle; font-size: 10.2px;" transform="translate(113.359375,286.5)" y="0" x="0" id="text-entity-Donor-154b7bca-042d-506b-8666-2d01b6e0a138-attr-13-name" class="er entityLabel">genetic_acestry_code</text><rect height="21" width="108.359375" y="297" x="0" class="er attributeBoxEven"/><text style="dominant-baseline: middle; font-size: 10.2px;" transform="translate(5,307.5)" y="0" x="0" id="text-entity-Donor-154b7bca-042d-506b-8666-2d01b6e0a138-attr-14-type" class="er entityLabel">stringList</text><rect height="21" width="164.609375" y="297" x="108.359375" class="er attributeBoxEven"/><text style="dominant-baseline: middle; font-size: 10.2px;" transform="translate(113.359375,307.5)" y="0" x="0" id="text-entity-Donor-154b7bca-042d-506b-8666-2d01b6e0a138-attr-14-name" class="er entityLabel">genetic_ancestry_coding_system</text></g><g transform="translate(20,249 )" id="entity-File-941e3472-abf7-5fc8-a371-2df9760a56a1"><rect height="192" width="152.66888427734375" y="0" x="0" class="er entityBox"/><text style="dominant-baseline: middle; text-anchor: middle; font-size: 12px;" transform="translate(76.33444213867188,12)" y="0" x="0" id="text-entity-File-941e3472-abf7-5fc8-a371-2df9760a56a1" class="er entityLabel">File</text><rect height="21" width="50.93450927734375" y="24" x="0" class="er attributeBoxOdd"/><text style="dominant-baseline: middle; font-size: 10.2px;" transform="translate(5,34.5)" y="0" x="0" id="text-entity-File-941e3472-abf7-5fc8-a371-2df9760a56a1-attr-1-type" class="er entityLabel">string</text><rect height="21" width="101.734375" y="24" x="50.93450927734375" class="er attributeBoxOdd"/><text style="dominant-baseline: middle; font-size: 10.2px;" transform="translate(55.93450927734375,34.5)" y="0" x="0" id="text-entity-File-941e3472-abf7-5fc8-a371-2df9760a56a1-attr-1-name" class="er entityLabel">file_id</text><rect height="21" width="50.93450927734375" y="45" x="0" class="er attributeBoxEven"/><text style="dominant-baseline: middle; font-size: 10.2px;" transform="translate(5,55.5)" y="0" x="0" id="text-entity-File-941e3472-abf7-5fc8-a371-2df9760a56a1-attr-2-type" class="er entityLabel">stringList</text><rect height="21" width="101.734375" y="45" x="50.93450927734375" class="er attributeBoxEven"/><text style="dominant-baseline: middle; font-size: 10.2px;" transform="translate(55.93450927734375,55.5)" y="0" x="0" id="text-entity-File-941e3472-abf7-5fc8-a371-2df9760a56a1-attr-2-name" class="er entityLabel">data_modality</text><rect height="21" width="50.93450927734375" y="66" x="0" class="er attributeBoxOdd"/><text style="dominant-baseline: middle; font-size: 10.2px;" transform="translate(5,76.5)" y="0" x="0" id="text-entity-File-941e3472-abf7-5fc8-a371-2df9760a56a1-attr-3-type" class="er entityLabel">string</text><rect height="21" width="101.734375" y="66" x="50.93450927734375" class="er attributeBoxOdd"/><text style="dominant-baseline: middle; font-size: 10.2px;" transform="translate(55.93450927734375,76.5)" y="0" x="0" id="text-entity-File-941e3472-abf7-5fc8-a371-2df9760a56a1-attr-3-name" class="er entityLabel">file_format</text><rect height="21" width="50.93450927734375" y="87" x="0" class="er attributeBoxEven"/><text style="dominant-baseline: middle; font-size: 10.2px;" transform="translate(5,97.5)" y="0" x="0" id="text-entity-File-941e3472-abf7-5fc8-a371-2df9760a56a1-attr-4-type" class="er entityLabel">integer</text><rect height="21" width="101.734375" y="87" x="50.93450927734375" class="er attributeBoxEven"/><text style="dominant-baseline: middle; font-size: 10.2px;" transform="translate(55.93450927734375,97.5)" y="0" x="0" id="text-entity-File-941e3472-abf7-5fc8-a371-2df9760a56a1-attr-4-name" class="er entityLabel">file_size</text><rect height="21" width="50.93450927734375" y="108" x="0" class="er attributeBoxOdd"/><text style="dominant-baseline: middle; font-size: 10.2px;" transform="translate(5,118.5)" y="0" x="0" id="text-entity-File-941e3472-abf7-5fc8-a371-2df9760a56a1-attr-5-type" class="er entityLabel">string</text><rect height="21" width="101.734375" y="108" x="50.93450927734375" class="er attributeBoxOdd"/><text style="dominant-baseline: middle; font-size: 10.2px;" transform="translate(55.93450927734375,118.5)" y="0" x="0" id="text-entity-File-941e3472-abf7-5fc8-a371-2df9760a56a1-attr-5-name" class="er entityLabel">file_md5sum</text><rect height="21" width="50.93450927734375" y="129" x="0" class="er attributeBoxEven"/><text style="dominant-baseline: middle; font-size: 10.2px;" transform="translate(5,139.5)" y="0" x="0" id="text-entity-File-941e3472-abf7-5fc8-a371-2df9760a56a1-attr-6-type" class="er entityLabel">string</text><rect height="21" width="101.734375" y="129" x="50.93450927734375" class="er attributeBoxEven"/><text style="dominant-baseline: middle; font-size: 10.2px;" transform="translate(55.93450927734375,139.5)" y="0" x="0" id="text-entity-File-941e3472-abf7-5fc8-a371-2df9760a56a1-attr-6-name" class="er entityLabel">file_name</text><rect height="21" width="50.93450927734375" y="150" x="0" class="er attributeBoxOdd"/><text style="dominant-baseline: middle; font-size: 10.2px;" transform="translate(5,160.5)" y="0" x="0" id="text-entity-File-941e3472-abf7-5fc8-a371-2df9760a56a1-attr-7-type" class="er entityLabel">string</text><rect height="21" width="101.734375" y="150" x="50.93450927734375" class="er attributeBoxOdd"/><text style="dominant-baseline: middle; font-size: 10.2px;" transform="translate(55.93450927734375,160.5)" y="0" x="0" id="text-entity-File-941e3472-abf7-5fc8-a371-2df9760a56a1-attr-7-name" class="er entityLabel">file_ref</text><rect height="21" width="50.93450927734375" y="171" x="0" class="er attributeBoxEven"/><text style="dominant-baseline: middle; font-size: 10.2px;" transform="translate(5,181.5)" y="0" x="0" id="text-entity-File-941e3472-abf7-5fc8-a371-2df9760a56a1-attr-8-type" class="er entityLabel">stringList</text><rect height="21" width="101.734375" y="171" x="50.93450927734375" class="er attributeBoxEven"/><text style="dominant-baseline: middle; font-size: 10.2px;" transform="translate(55.93450927734375,181.5)" y="0" x="0" id="text-entity-File-941e3472-abf7-5fc8-a371-2df9760a56a1-attr-8-name" class="er entityLabel">reference_assembly</text></g><g transform="translate(453.5561752319336,604 )" id="entity-Condition-07cd3275-df2e-5634-b439-934d27f08813"><rect height="234" width="185.984375" y="0" x="0" class="er entityBox"/><text style="dominant-baseline: middle; text-anchor: middle; font-size: 12px;" transform="translate(92.9921875,12)" y="0" x="0" id="text-entity-Condition-07cd3275-df2e-5634-b439-934d27f08813" class="er entityLabel">Condition</text><rect height="21" width="34.921875" y="24" x="0" class="er attributeBoxOdd"/><text style="dominant-baseline: middle; font-size: 10.2px;" transform="translate(5,34.5)" y="0" x="0" id="text-entity-Condition-07cd3275-df2e-5634-b439-934d27f08813-attr-1-type" class="er entityLabel">string</text><rect height="21" width="151.0625" y="24" x="34.921875" class="er attributeBoxOdd"/><text style="dominant-baseline: middle; font-size: 10.2px;" transform="translate(39.921875,34.5)" y="0" x="0" id="text-entity-Condition-07cd3275-df2e-5634-b439-934d27f08813-attr-1-name" class="er entityLabel">condition_id</text><rect height="21" width="34.921875" y="45" x="0" class="er attributeBoxEven"/><text style="dominant-baseline: middle; font-size: 10.2px;" transform="translate(5,55.5)" y="0" x="0" id="text-entity-Condition-07cd3275-df2e-5634-b439-934d27f08813-attr-2-type" class="er entityLabel">string</text><rect height="21" width="151.0625" y="45" x="34.921875" class="er attributeBoxEven"/><text style="dominant-baseline: middle; font-size: 10.2px;" transform="translate(39.921875,55.5)" y="0" x="0" id="text-entity-Condition-07cd3275-df2e-5634-b439-934d27f08813-attr-2-name" class="er entityLabel">condition</text><rect height="21" width="34.921875" y="66" x="0" class="er attributeBoxOdd"/><text style="dominant-baseline: middle; font-size: 10.2px;" transform="translate(5,76.5)" y="0" x="0" id="text-entity-Condition-07cd3275-df2e-5634-b439-934d27f08813-attr-3-type" class="er entityLabel">string</text><rect height="21" width="151.0625" y="66" x="34.921875" class="er attributeBoxOdd"/><text style="dominant-baseline: middle; font-size: 10.2px;" transform="translate(39.921875,76.5)" y="0" x="0" id="text-entity-Condition-07cd3275-df2e-5634-b439-934d27f08813-attr-3-name" class="er entityLabel">condition_coding_system</text><rect height="21" width="34.921875" y="87" x="0" class="er attributeBoxEven"/><text style="dominant-baseline: middle; font-size: 10.2px;" transform="translate(5,97.5)" y="0" x="0" id="text-entity-Condition-07cd3275-df2e-5634-b439-934d27f08813-attr-4-type" class="er entityLabel">string</text><rect height="21" width="151.0625" y="87" x="34.921875" class="er attributeBoxEven"/><text style="dominant-baseline: middle; font-size: 10.2px;" transform="translate(39.921875,97.5)" y="0" x="0" id="text-entity-Condition-07cd3275-df2e-5634-b439-934d27f08813-attr-4-name" class="er entityLabel">donor_is_affected</text><rect height="21" width="34.921875" y="108" x="0" class="er attributeBoxOdd"/><text style="dominant-baseline: middle; font-size: 10.2px;" transform="translate(5,118.5)" y="0" x="0" id="text-entity-Condition-07cd3275-df2e-5634-b439-934d27f08813-attr-5-type" class="er entityLabel">string</text><rect height="21" width="151.0625" y="108" x="34.921875" class="er attributeBoxOdd"/><text style="dominant-baseline: middle; font-size: 10.2px;" transform="translate(39.921875,118.5)" y="0" x="0" id="text-entity-Condition-07cd3275-df2e-5634-b439-934d27f08813-attr-5-name" class="er entityLabel">observation_age_unit</text><rect height="21" width="34.921875" y="129" x="0" class="er attributeBoxEven"/><text style="dominant-baseline: middle; font-size: 10.2px;" transform="translate(5,139.5)" y="0" x="0" id="text-entity-Condition-07cd3275-df2e-5634-b439-934d27f08813-attr-6-type" class="er entityLabel">float</text><rect height="21" width="151.0625" y="129" x="34.921875" class="er attributeBoxEven"/><text style="dominant-baseline: middle; font-size: 10.2px;" transform="translate(39.921875,139.5)" y="0" x="0" id="text-entity-Condition-07cd3275-df2e-5634-b439-934d27f08813-attr-6-name" class="er entityLabel">observation_age_lower_bound</text><rect height="21" width="34.921875" y="150" x="0" class="er attributeBoxOdd"/><text style="dominant-baseline: middle; font-size: 10.2px;" transform="translate(5,160.5)" y="0" x="0" id="text-entity-Condition-07cd3275-df2e-5634-b439-934d27f08813-attr-7-type" class="er entityLabel">float</text><rect height="21" width="151.0625" y="150" x="34.921875" class="er attributeBoxOdd"/><text style="dominant-baseline: middle; font-size: 10.2px;" transform="translate(39.921875,160.5)" y="0" x="0" id="text-entity-Condition-07cd3275-df2e-5634-b439-934d27f08813-attr-7-name" class="er entityLabel">observation_age_upper_bound</text><rect height="21" width="34.921875" y="171" x="0" class="er attributeBoxEven"/><text style="dominant-baseline: middle; font-size: 10.2px;" transform="translate(5,181.5)" y="0" x="0" id="text-entity-Condition-07cd3275-df2e-5634-b439-934d27f08813-attr-8-type" class="er entityLabel">string</text><rect height="21" width="151.0625" y="171" x="34.921875" class="er attributeBoxEven"/><text style="dominant-baseline: middle; font-size: 10.2px;" transform="translate(39.921875,181.5)" y="0" x="0" id="text-entity-Condition-07cd3275-df2e-5634-b439-934d27f08813-attr-8-name" class="er entityLabel">onset_age_unit</text><rect height="21" width="34.921875" y="192" x="0" class="er attributeBoxOdd"/><text style="dominant-baseline: middle; font-size: 10.2px;" transform="translate(5,202.5)" y="0" x="0" id="text-entity-Condition-07cd3275-df2e-5634-b439-934d27f08813-attr-9-type" class="er entityLabel">float</text><rect height="21" width="151.0625" y="192" x="34.921875" class="er attributeBoxOdd"/><text style="dominant-baseline: middle; font-size: 10.2px;" transform="translate(39.921875,202.5)" y="0" x="0" id="text-entity-Condition-07cd3275-df2e-5634-b439-934d27f08813-attr-9-name" class="er entityLabel">onset_age_lower_bound</text><rect height="21" width="34.921875" y="213" x="0" class="er attributeBoxEven"/><text style="dominant-baseline: middle; font-size: 10.2px;" transform="translate(5,223.5)" y="0" x="0" id="text-entity-Condition-07cd3275-df2e-5634-b439-934d27f08813-attr-10-type" class="er entityLabel">float</text><rect height="21" width="151.0625" y="213" x="34.921875" class="er attributeBoxEven"/><text style="dominant-baseline: middle; font-size: 10.2px;" transform="translate(39.921875,223.5)" y="0" x="0" id="text-entity-Condition-07cd3275-df2e-5634-b439-934d27f08813-attr-10-name" class="er entityLabel">onset_age_upper_bound</text></g><g transform="translate(139.19847106933594,20 )" id="entity-Activity-11fee013-deaf-5d98-8fab-b92585bcaa6a"><rect height="129" width="190.60638427734375" y="0" x="0" class="er entityBox"/><text style="dominant-baseline: middle; text-anchor: middle; font-size: 12px;" transform="translate(95.30319213867188,12)" y="0" x="0" id="text-entity-Activity-11fee013-deaf-5d98-8fab-b92585bcaa6a" class="er entityLabel">Activity</text><rect height="21" width="50.93450927734375" y="24" x="0" class="er attributeBoxOdd"/><text style="dominant-baseline: middle; font-size: 10.2px;" transform="translate(5,34.5)" y="0" x="0" id="text-entity-Activity-11fee013-deaf-5d98-8fab-b92585bcaa6a-attr-1-type" class="er entityLabel">string</text><rect height="21" width="139.671875" y="24" x="50.93450927734375" class="er attributeBoxOdd"/><text style="dominant-baseline: middle; font-size: 10.2px;" transform="translate(55.93450927734375,34.5)" y="0" x="0" id="text-entity-Activity-11fee013-deaf-5d98-8fab-b92585bcaa6a-attr-1-name" class="er entityLabel">activity_id</text><rect height="21" width="50.93450927734375" y="45" x="0" class="er attributeBoxEven"/><text style="dominant-baseline: middle; font-size: 10.2px;" transform="translate(5,55.5)" y="0" x="0" id="text-entity-Activity-11fee013-deaf-5d98-8fab-b92585bcaa6a-attr-2-type" class="er entityLabel">string</text><rect height="21" width="139.671875" y="45" x="50.93450927734375" class="er attributeBoxEven"/><text style="dominant-baseline: middle; font-size: 10.2px;" transform="translate(55.93450927734375,55.5)" y="0" x="0" id="text-entity-Activity-11fee013-deaf-5d98-8fab-b92585bcaa6a-attr-2-name" class="er entityLabel">activity_type</text><rect height="21" width="50.93450927734375" y="66" x="0" class="er attributeBoxOdd"/><text style="dominant-baseline: middle; font-size: 10.2px;" transform="translate(5,76.5)" y="0" x="0" id="text-entity-Activity-11fee013-deaf-5d98-8fab-b92585bcaa6a-attr-3-type" class="er entityLabel">string</text><rect height="21" width="139.671875" y="66" x="50.93450927734375" class="er attributeBoxOdd"/><text style="dominant-baseline: middle; font-size: 10.2px;" transform="translate(55.93450927734375,76.5)" y="0" x="0" id="text-entity-Activity-11fee013-deaf-5d98-8fab-b92585bcaa6a-attr-3-name" class="er entityLabel">activity_type_code</text><rect height="21" width="50.93450927734375" y="87" x="0" class="er attributeBoxEven"/><text style="dominant-baseline: middle; font-size: 10.2px;" transform="translate(5,97.5)" y="0" x="0" id="text-entity-Activity-11fee013-deaf-5d98-8fab-b92585bcaa6a-attr-4-type" class="er entityLabel">string</text><rect height="21" width="139.671875" y="87" x="50.93450927734375" class="er attributeBoxEven"/><text style="dominant-baseline: middle; font-size: 10.2px;" transform="translate(55.93450927734375,97.5)" y="0" x="0" id="text-entity-Activity-11fee013-deaf-5d98-8fab-b92585bcaa6a-attr-4-name" class="er entityLabel">activity_type_coding_system</text><rect height="21" width="50.93450927734375" y="108" x="0" class="er attributeBoxOdd"/><text style="dominant-baseline: middle; font-size: 10.2px;" transform="translate(5,118.5)" y="0" x="0" id="text-entity-Activity-11fee013-deaf-5d98-8fab-b92585bcaa6a-attr-5-type" class="er entityLabel">stringList</text><rect height="21" width="139.671875" y="108" x="50.93450927734375" class="er attributeBoxOdd"/><text style="dominant-baseline: middle; font-size: 10.2px;" transform="translate(55.93450927734375,118.5)" y="0" x="0" id="text-entity-Activity-11fee013-deaf-5d98-8fab-b92585bcaa6a-attr-5-name" class="er entityLabel">data_modality</text></g><g transform="translate(429.8048553466797,20 )" id="entity-Project-c2395ed5-a5fa-58df-9cbe-a2926add311c"><rect height="129" width="157.24380493164062" y="0" x="0" class="er entityBox"/><text style="dominant-baseline: middle; text-anchor: middle; font-size: 12px;" transform="translate(78.62190246582031,12)" y="0" x="0" id="text-entity-Project-c2395ed5-a5fa-58df-9cbe-a2926add311c" class="er entityLabel">Project</text><rect height="21" width="50.93450927734375" y="24" x="0" class="er attributeBoxOdd"/><text style="dominant-baseline: middle; font-size: 10.2px;" transform="translate(5,34.5)" y="0" x="0" id="text-entity-Project-c2395ed5-a5fa-58df-9cbe-a2926add311c-attr-1-type" class="er entityLabel">string</text><rect height="21" width="106.30929565429688" y="24" x="50.93450927734375" class="er attributeBoxOdd"/><text style="dominant-baseline: middle; font-size: 10.2px;" transform="translate(55.93450927734375,34.5)" y="0" x="0" id="text-entity-Project-c2395ed5-a5fa-58df-9cbe-a2926add311c-attr-1-name" class="er entityLabel">project_id</text><rect height="21" width="50.93450927734375" y="45" x="0" class="er attributeBoxEven"/><text style="dominant-baseline: middle; font-size: 10.2px;" transform="translate(5,55.5)" y="0" x="0" id="text-entity-Project-c2395ed5-a5fa-58df-9cbe-a2926add311c-attr-2-type" class="er entityLabel">string</text><rect height="21" width="106.30929565429688" y="45" x="50.93450927734375" class="er attributeBoxEven"/><text style="dominant-baseline: middle; font-size: 10.2px;" transform="translate(55.93450927734375,55.5)" y="0" x="0" id="text-entity-Project-c2395ed5-a5fa-58df-9cbe-a2926add311c-attr-2-name" class="er entityLabel">title</text><rect height="21" width="50.93450927734375" y="66" x="0" class="er attributeBoxOdd"/><text style="dominant-baseline: middle; font-size: 10.2px;" transform="translate(5,76.5)" y="0" x="0" id="text-entity-Project-c2395ed5-a5fa-58df-9cbe-a2926add311c-attr-3-type" class="er entityLabel">stringList</text><rect height="21" width="106.30929565429688" y="66" x="50.93450927734375" class="er attributeBoxOdd"/><text style="dominant-baseline: middle; font-size: 10.2px;" transform="translate(55.93450927734375,76.5)" y="0" x="0" id="text-entity-Project-c2395ed5-a5fa-58df-9cbe-a2926add311c-attr-3-name" class="er entityLabel">funded_by</text><rect height="21" width="50.93450927734375" y="87" x="0" class="er attributeBoxEven"/><text style="dominant-baseline: middle; font-size: 10.2px;" transform="translate(5,97.5)" y="0" x="0" id="text-entity-Project-c2395ed5-a5fa-58df-9cbe-a2926add311c-attr-4-type" class="er entityLabel">stringList</text><rect height="21" width="106.30929565429688" y="87" x="50.93450927734375" class="er attributeBoxEven"/><text style="dominant-baseline: middle; font-size: 10.2px;" transform="translate(55.93450927734375,97.5)" y="0" x="0" id="text-entity-Project-c2395ed5-a5fa-58df-9cbe-a2926add311c-attr-4-name" class="er entityLabel">registered_identifier</text><rect height="21" width="50.93450927734375" y="108" x="0" class="er attributeBoxOdd"/><text style="dominant-baseline: middle; font-size: 10.2px;" transform="translate(5,118.5)" y="0" x="0" id="text-entity-Project-c2395ed5-a5fa-58df-9cbe-a2926add311c-attr-5-type" class="er entityLabel">stringList</text><rect height="21" width="106.30929565429688" y="108" x="50.93450927734375" class="er attributeBoxOdd"/><text style="dominant-baseline: middle; font-size: 10.2px;" transform="translate(55.93450927734375,118.5)" y="0" x="0" id="text-entity-Project-c2395ed5-a5fa-58df-9cbe-a2926add311c-attr-5-name" class="er entityLabel">principal_investigator</text></g><rect height="14" width="62.71875" y="979.6099243164062" x="212.94577026367188" class="er relationshipLabelBox"/><text style="text-anchor: middle; dominant-baseline: middle; font-size: 12px;" y="986.6099243164062" x="244.30514526367188" id="rel1" class="er relationshipLabel">donor_id_fk</text><rect height="14" width="86.71875" y="485.4811706542969" x="56.93141174316406" class="er relationshipLabelBox"/><text style="text-anchor: middle; dominant-baseline: middle; font-size: 12px;" y="492.4811706542969" x="100.29078674316406" id="rel2" class="er relationshipLabel">biosample_id_fk</text><rect height="14" width="62.71875" y="913.8706665039062" x="513.576416015625" class="er relationshipLabelBox"/><text style="text-anchor: middle; dominant-baseline: middle; font-size: 12px;" y="920.8706665039062" x="544.935791015625" id="rel3" class="er relationshipLabel">donor_id_fk</text><rect height="14" width="64.0625" y="176.49981689453125" x="46.21082305908203" class="er relationshipLabelBox"/><text style="text-anchor: middle; dominant-baseline: middle; font-size: 12px;" y="183.49981689453125" x="78.24207305908203" id="rel4" class="er relationshipLabel">used_file_id</text><rect height="14" width="92.078125" y="189.01686096191406" x="105.55439758300781" class="er relationshipLabelBox"/><text style="text-anchor: middle; dominant-baseline: middle; font-size: 12px;" y="196.01686096191406" x="151.5934600830078" id="rel5" class="er relationshipLabel">generated_file_id</text><rect height="14" width="103.40625" y="337.6709899902344" x="232.79876708984375" class="er relationshipLabelBox"/><text style="text-anchor: middle; dominant-baseline: middle; font-size: 12px;" y="344.6709899902344" x="284.50189208984375" id="rel6" class="er relationshipLabel">used_biosample_id</text><rect height="14" width="131.4375" y="331.6900634765625" x="318.7814025878906" class="er relationshipLabelBox"/><text style="text-anchor: middle; dominant-baseline: middle; font-size: 12px;" y="338.6900634765625" x="384.5001525878906" id="rel7" class="er relationshipLabel">generated_biosample_id</text><style>svg span {
    font-family: 'Arial' !important;
}

svg {
    font-family: 'Arial' !important;
    -webkit-user-select: none;
    -moz-user-select: none;
    -ms-user-select: none;
    user-select: none;
}
</style></svg>